<?xml version="1.0" encoding="utf-8"?>
<!-- Svg Vector Icons : http://www.onlinewebfonts.com/icon -->
<!DOCTYPE svg PUBLIC "-//W3C//DTD SVG 1.1//EN" "http://www.w3.org/Graphics/SVG/1.1/DTD/svg11.dtd">
<svg version="1.1" xmlns="http://www.w3.org/2000/svg" xmlns:xlink="http://www.w3.org/1999/xlink" x="0px" y="0px" viewBox="0 0 256 256" enable-background="new 0 0 256 256" xml:space="preserve">
<metadata> Svg Vector Icons : http://www.onlinewebfonts.com/icon </metadata>
<g><g><g><g><path fill="#000000" d="M128.3,60.8c3.9,0,7.1,3.2,7.1,7.1s-3.2,7.1-7.1,7.1c-3.9,0-7.1-3.2-7.1-7.1S124.4,60.8,128.3,60.8z"/><path fill="#000000" d="M117.7 198.5h16.2v16.2h-16.2z"/><path fill="#000000" d="M117.7 208h16.2v16.2h-16.2z"/><path fill="#000000" d="M117.7 216.5h16.2v16.2h-16.2z"/><path fill="#000000" d="M134,230.8V226h-16.2v4.9c-5.4,2.9-9.1,8.6-9.1,15.2c25.7,0,16.9,0,34.4,0C143.1,239.4,139.4,233.7,134,230.8z"/><path fill="#000000" d="M155 198.5h16.2v16.2h-16.2z"/><path fill="#000000" d="M155 208h16.2v16.2h-16.2z"/><path fill="#000000" d="M155 216.5h16.2v16.2h-16.2z"/><path fill="#000000" d="M171.2,230.8V226H155v4.9c-5.4,2.9-9.1,8.6-9.1,15.2c25.7,0,16.9,0,34.4,0C180.3,239.4,176.6,233.7,171.2,230.8z"/><path fill="#000000" d="M160.1,60.8c3.9,0,7.1,3.2,7.1,7.1S164,75,160.1,75c-3.9,0-7.1-3.2-7.1-7.1S156.2,60.8,160.1,60.8z"/><path fill="#000000" d="M216.3,172L216.3,172l-30.4-60.2h0l0,0h-23.7v-15h16.5V48.3h-20v-10h-13.2V17.4h2.7V10h-4h-3.9v7.4h2.7v20.9h-13.2v10h-20v48.5h16.5v15h-23.9l-18.2,22.4L52,105V93.1h-6.5v16.6H29v6.5h13.2l43.7,39.6l16.5-20.3v48.8h15v11.2h16.2v-11.2h21v11.2h16.3v-11.2h15v-39.5l16.1,31.8l-5.1,12.2l6,2.5l6.5-15.3l15.3,6.5l2.5-6L216.3,172z M172.2,67.9c0,6.7-5.4,12.1-12.1,12.1c-6.7,0-12.1-5.4-12.1-12.1s5.4-12.1,12.1-12.1C166.8,55.8,172.2,61.2,172.2,67.9z M116.3,67.9c0-6.7,5.4-12.1,12.1-12.1c6.7,0,12.1,5.4,12.1,12.1s-5.4,12.1-12.1,12.1C121.7,79.9,116.3,74.5,116.3,67.9z M151.1,168H115v-9.6h36.1V168z M151.1,152.8H115v-9.6h36.1V152.8z M151.1,137.3H115v-9.6h36.1V137.3z M144.2,89.6h-13.5v-4.8h13.5h13.5v4.8H144.2z M173.9,168h-17.4v-9.6h17.4V168z M173.9,152.8h-17.4v-9.6h17.4V152.8z M173.9,137.3h-17.4v-9.6h17.4V137.3z"/></g></g><g></g><g></g><g></g><g></g><g></g><g></g><g></g><g></g><g></g><g></g><g></g><g></g><g></g><g></g><g></g></g></g>
</svg>